# xmcd CD database file
#
# Track frame offsets:
#	182
#	17790
#	36860
#	57752
#	77597
#	97232
#	111652
#	127685
#	139417
#	158895
#
# Disc length: 2312 seconds
#
# Revision: 0
# Processed by: cddbd v1.4PL0 Copyright (c) Steve Scherf et al.
# Submitted via: CDex 1.50Beta7
#
DISCID=8509060a
DTITLE=Ramon Orlando - El Hijo de la Mazurca-Vol 1
DYEAR=1990
DGENRE=Merengue
TTITLE0=MIL MANERAS
TTITLE1=ESTE AMOR
TTITLE2=DOS EXTRANOS LOCOS
TTITLE3=BALADA DE AMOR
TTITLE4=THE KING
TTITLE5=VOY
TTITLE6=AMANDOTE COMO TE AMO
TTITLE7=NUPCIAS
TTITLE8=UN RATITO MAS
TTITLE9=CLAUDIA
EXTD=YEAR: 1990
EXTT0=
EXTT1=
EXTT2=
EXTT3=
EXTT4=
EXTT5=
EXTT6=
EXTT7=
EXTT8=
EXTT9=
PLAYORDER=
